<?xml version="1.0" encoding="UTF-8"?>
<svg width="427px" height="455px" viewBox="0 0 427 455" version="1.1" xmlns="http://www.w3.org/2000/svg" xmlns:xlink="http://www.w3.org/1999/xlink">
    <!-- Generator: Sketch 49.3 (51167) - http://www.bohemiancoding.com/sketch -->
    <title>Page 1 Copy 2</title>
    <desc>Created with Sketch.</desc>
    <defs></defs>
    <g id="vedanth-ui" stroke="none" stroke-width="1" fill="none" fill-rule="evenodd">
        <g id="Vedanth-yoga-website" transform="translate(-470.000000, -1752.000000)">
            <g id="Benefits-of-yoga" transform="translate(0.000000, 1529.000000)">
                <g id="Group-52" transform="translate(47.000000, 76.000000)">
                    <g id="Page-1-Copy-2" transform="translate(423.000000, 147.000000)">
                        <path d="M427,425.499319 C427,441.792975 331.41312,455 213.5,455 C95.5868798,455 0,441.792975 0,425.499319 C0,409.207025 95.5868798,396 213.5,396 C331.41312,396 427,409.207025 427,425.499319" id="Fill-1" fill="#034561" opacity="0.200000003"></path>
                        <path d="M218.228252,401.707142 C225.872191,400.062836 262.920997,390.943924 289,363.815566 C284.943176,360.119908 278.047793,351.496707 271.961881,340 L217.5,348.423037 L163.038119,340 C156.950853,351.496707 150.056824,360.119908 146,363.815566 C172.079003,390.943924 209.126455,400.062836 216.774455,401.707142 L216.790699,402 C216.790699,402 217.050595,401.952981 217.5,401.860288 C217.949405,401.952981 218.209301,402 218.209301,402 L218.228252,401.707142 Z" id="Fill-9" fill="#034561"></path>
                        <path d="M136.287656,363.641191 C110.820302,358.702113 65.6844048,356.84878 45.8058588,367.34651 C25.9300226,377.84424 14.1278134,403.983508 58.0226561,426.009347 C101.916144,448.033839 157.615905,426.833649 201.923981,426.421498 C246.232057,426.009347 259.688553,435.478047 277.495514,432.390954 C322.218178,436.096273 377.420705,424.022671 386.570093,403.556542 C397.408995,379.31236 370.668069,356.436628 332.570684,358.083886 C294.473299,359.73249 286.399672,354.792065 268.180833,378.874618 C226.147572,388.341971 217.865296,388.960198 204.822032,379.285422 C191.778769,369.611994 185.565369,378.256392 175.420156,375.580103 C165.274944,372.903815 154.300556,356.436628 136.287656,363.641191" id="Fill-11" fill="#FFC7AB"></path>
                        <path d="M162.799531,108.350857 C149.792005,120.103762 122.536599,118.865194 115.309295,137.628556 C108.083343,156.391919 115.929473,186.701758 166.103093,189.176195 C216.280767,191.650633 268.105492,187.937627 280.288816,186.082474 C292.47349,184.22732 317.664339,177.42464 310.850487,149.795666 C304.036636,122.165344 282.357427,124.84621 274.509945,100.722465 C266.661113,76.5987204 282.974903,32.0628878 242.71062,27.1140122 C210.292468,24.2280675 195.010957,76.8037992 162.799531,108.350857" id="Fill-13" fill="#358584"></path>
                        <path d="M189.079183,85.3082582 C175.160891,94.5784918 168.818446,149.427486 188.152106,159.932493 C207.484417,170.438847 258.526251,165.340691 259.762353,159.315106 C250.017929,148.500058 249.24604,129.652246 253.421258,110.493044 C257.597825,91.3351907 260.536941,82.527323 259.917541,69.8587676 C259.29814,57.1902123 254.195846,37.1035829 240.121017,38.0310107 C224.808737,38.6497452 195.420278,62.9057555 189.079183,85.3082582" id="Fill-17" fill="#2B8D8B"></path>
                        <path d="M192.772691,100 C184.473816,109.915217 208.689334,135.238281 196.49736,154" id="Stroke-21" stroke="#43205C" stroke-linecap="round"></path>
                        <path d="M328.723975,288.926548 C327.172464,275.668083 322.827962,259.32369 314.138957,215.844913 C305.447245,172.366135 284.346151,167.739932 258.276431,158.798271 C232.20671,149.853919 232.828127,128.884668 234.068253,112.542965 L217.311661,111.055154 L217.311661,111 L217.000276,111.02825 L216.690245,111 L216.690245,111.055154 L199.930945,112.542965 C201.171071,128.884668 201.792488,149.853919 175.722767,158.798271 C149.655755,167.739932 128.551953,172.366135 119.864303,215.844913 C111.172591,259.32369 106.828088,275.668083 105.275223,288.926548 C103.72642,302.186357 108.689631,306.812561 120.794397,305.885706 C132.896455,304.961541 136.310863,283.99229 140.033948,263.640493 C143.759741,243.288696 147.794212,221.703335 150.587203,223.244954 C153.37884,224.786574 158.344759,248.222954 161.449135,251.922303 C164.414065,255.45888 212.697743,250.550181 217.000276,250.106259 C221.301455,250.550181 269.585133,255.45888 272.552771,251.922303 C275.654439,248.222954 280.620358,224.786574 283.411996,223.244954 C286.207694,221.703335 290.242165,243.288696 293.96525,263.640493 C297.688335,283.99229 301.102743,304.961541 313.207509,305.885706 C325.310921,306.812561 330.275486,302.186357 328.723975,288.926548" id="Fill-23" fill="#FFC7AB"></path>
                        <path d="M217.725052,148 C224.797339,148 231.397961,145.2406 237,140.472768 C233.261714,131.555706 233.741465,121.381178 234.404492,112.549208 L217.725052,111.055377 L217.725052,111 L217.4151,111.028364 L217.106496,111 L217.106496,111.055377 L200.424361,112.549208 C201.079302,121.250164 201.559053,131.25721 198,140.077024 C203.693677,145.086625 210.460055,148 217.725052,148" id="Fill-25" fill="#C98665"></path>
                        <path d="M254,70.5 C254,98.3909301 237.435556,121 217.00136,121 C196.565804,121 180,98.3909301 180,70.5 C180,42.6090699 196.565804,20 217.00136,20 C237.435556,20 254,42.6090699 254,70.5" id="Fill-27" fill="#FFC7AB"></path>
                        <path d="M203,64.1318197 C203,68.7709487 194.691502,69.831288 193,64" id="Stroke-29" stroke="#000000" stroke-width="2" stroke-linecap="round"></path>
                        <path d="M188,83 C188,87.970513 192.030538,92 196.997969,92 C201.969462,92 206,87.970513 206,83 C206,78.028133 201.969462,74 196.997969,74 C192.030538,74 188,78.028133 188,83" id="Fill-31" fill="#FFFFFF" style="mix-blend-mode: lighten;" opacity="0.229999989"></path>
                        <path d="M203,49.4438692 C199.880469,48.4863655 194.957682,48.9644205 192,52" id="Stroke-33" stroke="#6F438F" stroke-linecap="round"></path>
                        <path d="M271.667484,268.476003 C276.537617,250.293597 281,228.802473 281,228.802473 C268.832068,211.031122 268.016566,187.473907 268.424317,161.851954 C258.686741,158.13218 250.576132,154 250.576132,154 C254.225704,170.943833 263.151815,223.430368 219.339453,223.430368 C219.132214,230.807716 217.298008,239.212701 214.400689,248.077418 C214.12078,239.161319 213.867786,230.748221 213.660547,223.430368 C169.848185,223.430368 178.774296,170.943833 182.42656,154 C182.42656,154 174.311913,158.13218 164.575683,161.851954 C164.983434,187.473907 164.170624,211.031122 152,228.802473 C152,228.802473 156.465074,250.293597 161.332516,268.476003 C166.201304,286.658408 171.066055,313.52299 159.706895,344.107345 C163.932433,345.690717 176.684404,348.017773 189.683987,348.915602 C238.418965,354.817752 266.75025,346.562856 273.293105,344.107345 C261.933945,313.52299 266.798696,286.658408 271.667484,268.476003" id="Fill-35" fill="#4FB783"></path>
                        <path d="M310.914245,276.745367 C296.085935,275.194191 259.462922,268.368207 243.423419,257.198661 C227.382561,246.027761 226.474843,241.374235 227.683327,222.13614 C228.895875,202.899399 222.540498,192.349782 219.512515,194.210922 C216.485886,196.073415 216.789362,219.345107 217.396314,239.82306 C217.999201,260.301012 215.578169,267.43696 224.354578,272.713123 C233.132341,277.986578 272.781982,299.705741 293.360073,306.220407 C318.17734,314.59892 329.376135,308.702829 327.86553,291.94851 C326.352216,275.194191 310.914245,276.745367 310.914245,276.745367" id="Fill-37" fill="#FFC7AB"></path>
                        <path d="M123.083046,276.745367 C137.914065,275.194191 174.537078,268.368207 190.576581,257.198661 C206.617439,246.027761 207.525157,241.374235 206.313964,222.13614 C205.104125,202.899399 211.459502,192.349782 214.487485,194.210922 C217.514114,196.073415 217.210638,219.345107 216.603686,239.82306 C216.000799,260.301012 218.419121,267.43696 209.642713,272.713123 C200.864949,277.986578 161.218018,299.705741 140.637218,306.220407 C115.822661,314.59892 104.623866,308.702829 106.13447,291.94851 C107.647784,275.194191 123.083046,276.745367 123.083046,276.745367" id="Fill-39" fill="#FFC7AB"></path>
                        <path d="M208.231546,223.290401 C208.206794,222.8894 208.183417,222.480298 208.153165,222.065795 C206.926584,202.877149 213.377138,192.353908 216.450467,194.210394 C219.522421,196.068231 219.213026,219.28039 218.59836,239.707144 C218.14183,254.987041 219.398663,262.81939 216.334959,268" id="Stroke-41" stroke="#C98665" stroke-linecap="round"></path>
                        <path d="M242.992419,29.3124599 C243.613491,5.07577324 205.91215,-12.0905243 189.024147,10.6686462 C177.340155,26.4116484 190.470607,28.587257 166.484258,49.9244877 C140.572451,72.9737394 168.139095,95.1879911 158.833847,109.170174 C149.5286,123.153712 116.237002,142.209603 138.568514,174.214771 C160.900026,206.21994 193.590849,175.005039 192.124092,155.985747 C190.057913,129.161374 173.033247,113.922625 185.507448,99.6408723 C199.257619,83.8978701 201.223669,77.3723998 199.981526,60.9041948 C198.742089,44.4359897 211.149988,14.7094495 235.860245,30.5554712 C241.44177,34.2831495 242.68256,32.1088964 242.992419,29.3124599" id="Fill-43" fill="#409D9B"></path>
                        <path d="M218.536265,15.1597544 C206.551224,16.687366 201.119674,33.1196961 201,52 C203.593382,35.8563845 215.730734,16.9557486 236.6165,30.2799921 C237.990027,31.1922216 239.099728,31.7479632 240,32.0299004 C236.265639,23.6165149 230.661378,13.6118108 218.536265,15.1597544" id="Fill-45" fill="#5BA19F"></path>
                        <path d="M121,284 C123.570689,280.849337 127.925068,277.24816 139,275" id="Stroke-47" stroke="#C98665" stroke-linecap="round"></path>
                        <path d="M90,383.132074 C99.0796083,376.15599 132.916507,374.512346 168.611181,389.699934 C204.307205,404.884835 215.653677,410.837671 243.71473,404.47661 C271.774432,398.112863 292.405732,399.552394 291.993944,412.069061 C291.583505,424.585728 287.456165,431.972723 278.583126,433" id="Stroke-49" stroke="#C98665" stroke-linecap="round"></path>
                        <path d="M128.003707,378 C127.790618,370.033896 136.788028,362.066456 149,363.088951" id="Stroke-51" stroke="#C98665" stroke-linecap="round"></path>
                        <path d="M291.948339,409 C292.56069,414.521174 287.64848,416.442197 281.506209,415.4809 C278.230062,416.201872 277,415.961548 277,415.961548" id="Stroke-53" stroke="#C98665" stroke-linecap="round"></path>
                        <path d="M278,420.634697 C281.409676,421.100662 289.082493,421.566627 291,419" id="Stroke-55" stroke="#C98665" stroke-linecap="round"></path>
                        <path d="M277,425.459 C280.221177,425.917 288.280446,426.376 290,425" id="Stroke-57" stroke="#C98665" stroke-linecap="round"></path>
                        <path d="M276,429 C278.639539,429.69547 284.579223,430.531126 287,429.556194" id="Stroke-59" stroke="#C98665" stroke-linecap="round"></path>
                        <path d="M268,379.613422 C283.854288,374.42654 329.970221,368.046702 345,385" id="Stroke-61" stroke="#C98665" stroke-linecap="round"></path>
                        <path d="M133.593013,368 C131.191801,371.599706 136.393555,375.649926 143.597192,374.975626 C144.799107,376.325699 147,377 147,377" id="Stroke-63" stroke="#C98665" stroke-linecap="round"></path>
                        <path d="M129.018796,374 C128.597345,376.563316 135.355754,378.338019 140,377.945648" id="Stroke-65" stroke="#C98665" stroke-linecap="round"></path>
                        <path d="M217,208 C214.857543,208.629277 214,220.362061 214,230" id="Stroke-67" stroke="#C98665" stroke-linecap="round"></path>
                        <path d="M216,199.003938 C214.213368,198.794038 211.534003,206.969168 211,225" id="Stroke-69" stroke="#C98665" stroke-linecap="round"></path>
                        <path d="M228.768436,223.290401 C228.793189,222.8894 228.819318,222.480298 228.846822,222.065795 C230.073493,202.877149 223.622467,192.353908 220.551663,194.210394 C217.479484,196.068231 217.786152,219.28039 218.400863,239.707144 C218.860177,254.987041 217.600501,262.81939 220.664429,268" id="Stroke-71" stroke="#C98665" stroke-linecap="round"></path>
                        <path d="M219,208 C221.141655,208.629277 222,220.362061 222,230" id="Stroke-73" stroke="#C98665" stroke-linecap="round"></path>
                        <path d="M219,199.003938 C220.784295,198.794038 223.46366,206.969168 224,225" id="Stroke-75" stroke="#C98665" stroke-linecap="round"></path>
                        <g id="hair-strokes" transform="translate(131.000000, 1.000000)" stroke="#4FB783" stroke-linecap="round">
                            <path d="M107.467105,29.487865 C102.833996,17.4629849 92.1770363,7.74783949 80.1279875,16.2294224 C68.0802864,24.7083148 68.3888908,49.531574 68.3888908,61.8658537" id="Stroke-77"></path>
                            <path d="M74.9013158,22.2157593 C79.5335319,16.8199721 91.6777774,16.7944188 97.6973684,24.9634146" id="Stroke-79"></path>
                            <path d="M71.6447368,30.3902439 C73.559798,26.1818353 83.1378895,23.9261598 87.9276316,25.4303806" id="Stroke-81"></path>
                            <path d="M6.02638501,132.414634 C-0.189626298,143.965233 -5.7984554,159.422332 11.9407895,178" id="Stroke-83"></path>
                            <path d="M69.4736842,0 C56.9878121,7.56219733 73.1064331,26.8864662 44.2337047,45.8700592 C15.3636995,64.8536521 43.7653143,81.984399 40.6458887,107.603766 C37.5237398,133.223133 -4.14258229,143.718106 10.8377411,173.658537" id="Stroke-85"></path>
                            <path d="M111.809211,29.3081215 C125.176559,28.9993459 136.372307,50.7902708 132.950103,71.9636445 C129.529256,93.1343216 123.155519,113.224958 143.05666,125.125627 C162.955088,137.024947 173.528247,153.716356 156.428078,171.487805" id="Stroke-15"></path>
                            <path d="M113.980263,36.902439 C119.828588,37.5212508 132.159725,56.5693056 127.417617,81.5014771 C122.674129,106.433649 110.184369,140.502077 130.263158,159.54878" id="Stroke-19"></path>
                        </g>
                        <path d="M230,64.1318197 C230,68.7709487 238.305813,69.831288 240,64" id="Stroke-87" stroke="#000000" stroke-width="2" stroke-linecap="round"></path>
                        <path d="M213,79 C215.172134,81.355236 218.897532,81.9089824 222,79.1378321" id="Stroke-89" stroke="#C98665" stroke-linecap="round"></path>
                        <path d="M211,90.1275291 C212.724406,94.3215733 220.083876,96.2278562 224,90" id="Stroke-91" stroke="#DB6C73" stroke-linecap="round"></path>
                        <path d="M246,83 C246,87.970513 241.969462,92 236.999323,92 C232.030538,92 228,87.970513 228,83 C228,78.028133 232.030538,74 236.999323,74 C241.969462,74 246,78.028133 246,83" id="Fill-93" fill="#FFFFFF" style="mix-blend-mode: lighten;" opacity="0.229999989"></path>
                        <path d="M230,49.4438692 C233.120344,48.4863655 238.044413,48.9644205 241,52" id="Stroke-95" stroke="#6F438F" stroke-linecap="round"></path>
                    </g>
                </g>
            </g>
        </g>
    </g>
</svg>