<svg xmlns="http://www.w3.org/2000/svg" width="366" height="513" viewBox="0 0 366 513">
    <g fill="none" fill-rule="evenodd">
        <path fill="#034561" d="M189.015.986s-51.276-7.188-71.8 29.603c-5.016 8.992-7.086 19.317-6.478 29.596 3.035 51.43-12.446 49.709-13.66 79.057-1.278 30.892 4.935 90.815 39.26 101.389 34.325 10.576 128.207-7.05 128.207-7.05s29.363-75.675-2.248-115.384C230.686 78.487 289.948 4.386 189.015.986"/>
        <path fill="#FAC6AB" d="M230.94 91.838c0 31.475-20.298 65.166-50.38 65.166-30.083 0-50.382-33.691-50.382-65.166 0-31.475 20.3-56.991 50.381-56.991 30.083 0 50.381 25.516 50.381 56.99"/>
        <path fill="#FAC6AB" d="M242.825 304.288c4.827-19.59 10.325-35.305 12.907-42.273.478-1.29 2.318-1.236 2.726.077l9.534 53.48-7.477-3.353-17.69-7.93zM90.283 315.571l12.38-53.479c.407-1.313 2.247-1.367 2.725-.077 2.582 6.968 8.08 22.683 12.907 42.273l-28.012 11.283zm193.76-93.475c-8.303-18.956-60.432-18.735-78.594-38.48-12.774-13.89-4.104-45.883-4.104-45.883l-20.786-4.738-20.785 4.738s8.67 31.993-4.103 45.882c-18.163 19.746-70.29 19.525-78.593 38.481-8.303 18.957-26.822 93.475-21.074 111.995 0 0 3.192 16.604 16.603 13.411 5.96-1.419 27.938-6.865 50.523-16.692 3.496 19.718 6.281 48.937 3.864 68.493l53.565 5.558 54.477-17.127c-2.417-19.555-.542-38.628 2.954-58.345 22.584 9.827 44.563 16.694 50.523 18.113 13.41 3.193 16.603-13.41 16.603-13.41 5.748-18.52-12.772-93.039-21.074-111.996z"/>
        <path fill="#4EB582" d="M135.505 195.672l8.152 8.925c19.519 21.368 53.307 20.929 72.264-.939l7.512-8.665 9.796 3.552s-4.73 39.101 22.259 63.397c3.096 2.786-3.573 13.297-6.201 21.234-4.007 12.104-6.167 24.07-9.866 40.132-7.54 32.737-4 65.291-4 65.291s-100.471 16.779-109.285 5.456c-4.328-5.561 1.882-33.539-3.006-63.244-5.277-32.072-18.411-69.565-18.411-69.565s24.339-26.205 19.572-61.815l11.214-3.759"/>
        <path fill="#024050" d="M41.977 402.172s21.453-21.946 79.5-10.974c58.048 10.974 125.22-15.164 172.948-7.319l-31.423 42.963-125.276 28.305-95.749-52.975z"/>
        <path fill="#034561" d="M222.668 413.484s71.96-49.438 104.694-20.541c32.734 28.895-15.248 72.419-83.01 88.37 0 0 19.361-33.745-21.684-67.83"/>
        <path fill="#EDB49D" d="M244.352 481.313s-83.094 14.575-151.05 10.213c-63.226-4.06-85.887 20.776-91.128 21.433-5.24.658-2.31-19.208 34.073-41.947 14.418-10.295 2.01-31.906 20.227-31.814 18.216.092 23.075 20.479 23.075 20.479s133.992-33.762 143.119-46.193c9.128-12.431 48.438 33.974 21.684 67.829"/>
        <path fill="#034561" d="M133.9 420.881s-76.77-41.574-106.275-9.388c-29.505 32.187 22.797 70.408 91.865 79.125 0 0-22.813-31.516 14.41-69.737"/>
        <path fill="#FAC6AB" d="M119.49 490.618s84.167 5.732 151.284-5.77c62.447-10.705 87.601 11.603 92.881 11.704 5.28.1.272-19.345-38.306-38.12-15.422-8.718-5.365-31.517-23.469-29.505-18.105 2.011-20.787 22.798-20.787 22.798S144.287 432.28 133.9 420.881c-10.387-11.4-44.585 38.891-14.41 69.737"/>
        <path fill="#034561" d="M187.502 40.205s-4.45 37.698-26.22 46.973c-21.769 9.275-28.395 37.129-28.395 37.129l-17.954-41.452 14.525-42.65 50.362-12.791s9.093 5.045 7.682 12.79"/>
        <path fill="#034561" d="M187.066 37.253s17.62 44.378 46.534 51.479c28.914 7.102.24-6.01.24-6.01l3.561-8.211-24.308-50.39-26.155 7.644"/>
        <path fill="#FAC6AB" d="M123.13 330.81l54.588-30.022a5.485 5.485 0 0 0 2.842-4.807v-48.715a3.253 3.253 0 0 0-4.178-3.12 17.356 17.356 0 0 0-11.898 12.402l-6.627 28.188a7.35 7.35 0 0 1-4.326 5l-37.284 15.377 6.883 25.698z"/>
        <path fill="#FAC6AB" d="M238.928 329.795l-55.525-29.008a5.485 5.485 0 0 1-2.843-4.806v-48.715a3.253 3.253 0 0 1 4.178-3.119 17.36 17.36 0 0 1 11.899 12.401l6.626 28.187a7.35 7.35 0 0 0 4.326 5l37.283 15.377-5.944 24.683z"/>
    </g>
</svg>
