<svg xmlns="http://www.w3.org/2000/svg" xmlns:xlink="http://www.w3.org/1999/xlink" width="1182" height="716" viewBox="0 0 1182 716">
    <defs>
        <path id="a" d="M.437.619h242.314v201.037H.437z"/>
    </defs>
    <g fill="none" fill-rule="evenodd">
        <g opacity=".05" transform="translate(506 -.619)">
            <mask id="b" fill="#fff">
                <use xlink:href="#a"/>
            </mask>
            <path fill="#010202" d="M65.41 93.111h77.205V.618H65.41zM.437 103.379h49.686v-57.66H.437zM.437 161.143h49.686v-45.1H.437zM65.41 201.656h77.205v-92.493H65.41zM158.667 165.73h84.084V27.374h-84.084z" mask="url(#b)"/>
        </g>
        <path fill="#010202" d="M1010.793 715.381H514.25l146.457-153.687h436.543zM0 575.037h200.512V307.332H0z" opacity=".03"/>
        <path fill="#010202" d="M27.731 552.64h145.051V329.73H27.731z" opacity=".05"/>
        <path stroke="#FEFEFE" d="M27.73 386.257h145.051M27.73 444.918h145.051" opacity=".1"/>
        <path stroke="#FFF" d="M59.994 171.88c5.333 3.2 17.065 22.397 19.198 31.997 2.133 9.6 19.592 39.462 19.592 39.462s22.537-75.192 56.667-91.19" opacity=".05"/>
        <path fill="#010202" d="M83.43 214.797s-47.3-16.52-49.434-57.05c0 0 .74-.413 2.089-.996 27.428-11.855 56.77 11.926 51.56 41.349-1.662 9.39-4.215 16.697-4.215 16.697M107.238 219.878s-17.914-32.533-1.916-51.73h8.533s1.067-16 17.065-22.398h9.599s14.93-9.6 30.93-7.466c0 0-2.133 25.597-16 40.529h-8.531s7.466 18.13-5.333 28.797c-12.8 10.665-34.347 12.268-34.347 12.268" opacity=".05"/>
        <path stroke="#FFF" d="M98.923 243.872s47.749-44.832 92.79-20.265" opacity=".05"/>
        <path fill="#010202" d="M130.045 223.794s23.271-37.516 75.533-7.652c0 0 10.665 6.4 10.665 20.264 0 0-31.996 11.732-57.594 0-25.597-11.732-28.604-12.612-28.604-12.612M92.947 233.021s-27.62 2.852-36.153-12.08c0 0 4.921-5.635 16.86-7.617 0 0 20.783-1.82 19.293 19.697" opacity=".05"/>
        <path fill="#010202" d="M72.112 307.332l-13.985-65.06h84.257l-12.942 65.06z" opacity=".04"/>
        <path stroke="#FEFEFE" d="M27.73 503.578h145.051" opacity=".1"/>
        <path fill="#010202" d="M894.02 504.037H349.75c-11.947 0-21.63-9.684-21.63-21.63v-4.37h587.53v4.37c0 11.946-9.685 21.63-21.63 21.63" opacity=".03"/>
        <g fill="#010202">
            <path d="M917.387 320.037l-31.843-45.443c-22.433-32.015-62.476-51.557-105.644-51.557H444.649c-47.02 0-89.971 23.15-110.825 59.73l-21.247 37.27H319.434c8.284.175 44.618 3.091 48.843 40.614v45.386h503.595v-45.755c6.674-39.348 47.704-40.23 50.53-40.245h-5.015z" opacity=".03"/>
            <path d="M922.402 320.037h0"/>
        </g>
        <path fill="#010202" d="M922.562 320.037c-27.995 0-50.69 19.7-50.69 44v42H368.441v-42c0-24.3-22.694-44-50.69-44-27.993 0-50.688 19.7-50.688 44v114H973.25v-114c0-24.3-22.694-44-50.688-44" opacity=".05"/>
        <g fill="#010202">
            <path d="M338.488 504.037v2.517c0 14.486 13.53 26.23 30.218 26.23h506.356c16.69 0 30.22-14.744 30.22-29.23l-566.794.483z" opacity=".02"/>
            <path d="M340.127 501.782c-1.445.717-1.639 2.255-1.639 2.255h10.215c-4.278 0-8.576-2.255-8.576-2.255" opacity=".04"/>
        </g>
        <path fill="#010202" d="M520.507 316.037c0 7.732-7.221 14-16.128 14-8.908 0-16.128-6.268-16.128-14s7.22-14 16.128-14c8.907 0 16.128 6.268 16.128 14M771.646 316.037c0 7.732-7.22 14-16.127 14-8.908 0-16.129-6.268-16.129-14s7.221-14 16.129-14c8.907 0 16.127 6.268 16.127 14" opacity=".04"/>
        <path fill="#010202" d="M1038.25 509.037h143v-420h-143z" opacity=".03"/>
        <path stroke="#FEFEFE" d="M1038.25 184.537h143M1038.25 327.537h143" opacity=".05"/>
        <g fill="#010202" opacity=".04">
            <path d="M1180.47 128.696l-17.81-2.612-8.602 58.656h17.682zM1161.026 131.72l-15.542-2.278-8.08 55.095 15.847.203zM1143.854 132.888l-15.542-2.28-7.907 53.929 15.846.203zM1128.093 124.446l-15.542-2.279-9.146 62.37 15.846.203zM1108.3 143.49l-15.542-2.279-6.335 43.196 15.235.333zM1093.08 131.35l-15.542-2.279-8.134 55.466h15.876z"/>
        </g>
        <g fill="#010202" opacity=".04">
            <path d="M1039.097 255.686l17.81-2.612 10.932 74.546h-17.834zM1058.723 259.958l15.542-2.28 10.245 69.86-15.864.082zM1076.009 261.907l15.542-2.28 9.977 68.026-15.466-.033zM1091.58 252.165l15.542-2.28 11.388 77.653h-15.876zM1112.056 275.865l15.542-2.28 7.912 53.952-15.432.116zM1126.958 261.56l15.542-2.279 10.01 68.256-15.844.22z"/>
        </g>
        <g fill="#010202" opacity=".04">
            <path d="M1049.25 509.037h120v-18h-120zM1052.25 490.037h114v-10h-114zM1057.25 479.037h104v-13h-104zM1053.25 465.037h112v-14h-112zM1053.25 450.037h112v-13h-112zM1057.25 436.037h104v-13h-104zM1053.25 422.037h112v-14h-112zM1053.25 407.037h112v-13h-112z"/>
        </g>
    </g>
</svg>
