<?xml version="1.0" encoding="UTF-8"?>
<svg width="476px" height="406px" viewBox="0 0 476 406" version="1.1" xmlns="http://www.w3.org/2000/svg" xmlns:xlink="http://www.w3.org/1999/xlink">
    <!-- Generator: Sketch 49.3 (51167) - http://www.bohemiancoding.com/sketch -->
    <title>our_programs_illus</title>
    <desc>Created with Sketch.</desc>
    <defs>
        <polygon id="path-1" points="4.44108948e-05 0.440642081 265.795252 0.440642081 265.795252 139.090909 4.44108948e-05 139.090909"></polygon>
        <polygon id="path-3" points="0.409725694 0.637698595 129.109726 0.637698595 129.109726 50.9124313 0.409725694 50.9124313"></polygon>
        <polygon id="path-5" points="0.73645313 0.0120464853 68.3789563 0.0120464853 68.3789563 84.9260172 0.73645313 84.9260172"></polygon>
        <polygon id="path-7" points="0.0665748416 0.120212444 45.8274008 0.120212444 45.8274008 99.9472658 0.0665748416 99.9472658"></polygon>
        <polygon id="path-9" points="0.0151027451 0.855693647 115.985989 0.855693647 115.985989 42 0.0151027451 42"></polygon>
    </defs>
    <g id="vedanth-ui" stroke="none" stroke-width="1" fill="none" fill-rule="evenodd">
        <g id="Vedanth-yoga-website" transform="translate(-87.000000, -2571.000000)">
            <g id="Our-programs" transform="translate(87.000000, 2384.000000)">
                <g id="Group-19">
                    <g id="our_programs_illus" transform="translate(238.000000, 390.000000) scale(-1, 1) translate(-238.000000, -390.000000) translate(0.000000, 187.000000)">
                        <g id="Group-3" transform="translate(0.000000, 266.000000)">
                            <mask id="mask-2" fill="white">
                                <use xlink:href="#path-1"></use>
                            </mask>
                            <g id="Clip-2"></g>
                            <path d="M265.795252,17.363513 C265.795252,17.363513 224.960633,-15.6407727 151.158752,10.5331558 C103.158419,27.5568896 20.0610143,67.6945519 6.85918095,85.0958182 C-5.83010476,101.816532 -0.4807,120.350396 19.3295143,127.369519 C37.4528,133.787571 48.6989905,139.092896 96.4505143,139.092896 L174.521967,139.092896 L175.557014,113.460429 L75.3863,93.4313377 L171.795014,89.3877662 C206.085943,87.9471818 237.276705,68.5141948 252.916871,38.0135455 C253.10099,37.6459481 253.290086,37.2783506 253.474205,36.9057857 L265.795252,17.363513 Z" id="Fill-1" fill="#063C52" mask="url(#mask-2)"></path>
                        </g>
                        <g id="Group-6" transform="translate(69.000000, 351.000000)">
                            <mask id="mask-4" fill="white">
                                <use xlink:href="#path-3"></use>
                            </mask>
                            <g id="Clip-5"></g>
                            <path d="M0.409725694,7.44149738 L27.6244132,50.9143801 L129.109726,50.9143801 L129.109726,19.782281 C72.4410104,19.782281 58.6474687,-13.2255393 0.409725694,7.44149738" id="Fill-4" fill="#063C52" mask="url(#mask-4)"></path>
                        </g>
                        <path d="M442.348219,61.1078329 L446.655222,69.5171024 L463,90.6105207 C463,90.6105207 458.931172,97.1081365 452.778311,92.1107424 C446.620488,87.1183658 447.548379,87.865968 442.417687,83.7014729 C438.954222,80.8916931 432.632653,73.6866149 428.623369,69.0856005 C426.896599,67.0986848 424.708363,65.5783932 422.341497,64.4494638 C409.733093,58.4385421 401,47.4954533 401,47.4954533 C401.873309,43.642041 409.142617,36.5874867 415.047379,33 C432.17615,41.825719 437.212565,51.08294 442.348219,61.1078329" id="Fill-7" fill="#E4BC9E"></path>
                        <path d="M320.8861,40.1737576 L256.170034,122.720415 C250.359904,130.296265 239.475165,132.493763 231.902743,126.754179 C223.886047,120.67343 222.711186,109.083886 229.11862,101.492985 L297.788734,21.1388085 C301.155351,17.150199 308.100851,9.22816825 312.869404,7.26647476 C319.760603,4.4368197 328.764578,5.65597959 333,18.1285372 C330.818116,26.010431 326.706103,33.1096542 321.522894,39.3760357 C321.305693,39.641943 321.093429,39.9028332 320.8861,40.1737576" id="Fill-9" fill="#E4BC9E"></path>
                        <path d="M306.79611,10.9671346 C311.123444,5.40406454 315.781373,3.85215642 322.807741,4.01081796 C336.080864,4.30335016 373.472586,9.06815433 417.688371,32.7285555 C422.341366,35.2225164 413.568275,52.2736731 407.701456,49.7450049 C386.844395,40.7806283 339.668062,45.3619801 299,27.7208008 L304.546093,14.7799695 C305.133269,13.416472 305.888208,12.1323052 306.79611,10.9671346" id="Fill-11" fill="#E4BC9E"></path>
                        <path d="M251.250236,54 L265.378585,62.1711245 C265.378585,62.1711245 267.170133,89.1581878 267.936518,107.55191 C268.702902,125.945633 262.701215,153.320142 240.585547,181.802347 C220.843681,207.234662 222.694947,236 222.694947,236 L164.509441,220.139574 C164.509441,220.139574 159.57273,171.053221 167.555073,151.040175 C167.555073,151.040175 164.071507,126.695688 178.344175,118.410317 C188.113089,112.737718 214.528473,98.6456332 231.090342,88.5323144 C233.464143,87.086845 238.007709,71.3456332 235.514471,60.904476 L251.250236,54 Z" id="Fill-13" fill="#FCCEAD"></path>
                        <path d="M322.882371,64.5916189 C326.225782,77.2786834 352.896618,79.1597152 356.688536,57.4931989 C359.853563,39.400643 338.106103,29.8717319 327.306274,40.346109 C320.27288,47.1623742 321.924198,60.9533074 322.882371,64.5916189" id="Fill-15" fill="#034561"></path>
                        <path d="M318,63.1901593 L323.566583,65 C323.566583,65 334.627581,54.4535189 327.742723,40.3075217 L322.585094,40 L318,63.1901593 Z" id="Fill-17" fill="#FEEB97"></path>
                        <g id="Group-21" transform="translate(256.000000, 0.000000)">
                            <mask id="mask-6" fill="white">
                                <use xlink:href="#path-5"></use>
                            </mask>
                            <g id="Clip-20"></g>
                            <path d="M11.4735275,12.284216 C13.690998,2.14209262 19.0784098,-1.10679091 32.6560765,0.334932445 C45.3904098,1.69656006 75.7950569,24.1684217 66.7118608,55.0102883 C58.0652137,84.3653778 25.5571941,89.9770857 7.50986078,81.0464105 C-2.6151,76.0404266 1.61148824,63.9810114 1.61148824,63.9810114 C1.61148824,63.9810114 8.88399804,24.1534037 11.4735275,12.284216" id="Fill-19" fill="#034561" mask="url(#mask-6)"></path>
                        </g>
                        <path d="M282.018301,6.84853453 C282.018301,6.84853453 277.896891,4.79026726 272.476121,7.08505913 C269.791114,8.22239019 268.902879,8.70047183 265.735687,10.1850411 C259.751522,12.9881093 258.218682,18.9062567 251.554383,18.3375912 C244.895159,17.7739581 240.301716,15.4036797 240.301716,15.4036797 C240.301716,15.4036797 238.317145,15.7257557 237.840036,18.3677858 C237.357852,21.0047835 240.514892,24.6935608 239.941346,25.7503729 C239.377952,26.8122173 235.1195,27.8136726 235.1195,27.8136726 C235.1195,27.8136726 232.61214,28.5484086 232.759333,32.0962776 C230.505754,30.9337843 228.404444,32.6800404 228.546562,35.1761298 C228.688679,37.6671868 226.79547,38.4824418 223.577522,39.3329239 C220.36465,40.183406 217.481693,42.996539 223.541993,49.8406551 C229.607368,56.6898036 240.870186,68.8079151 261.319891,68.1587306 C261.319891,68.1587306 267.436022,74.6707058 279.901764,67.9775628 C292.367506,61.2894523 282.799948,52.1908038 276.952825,55.9198406 C270.222542,60.2175429 263.568394,57.4295721 263.568394,57.4295721 C263.568394,57.4295721 267.933434,54.6416013 277.186304,48.7335187 C277.186304,48.7335187 271.491449,20.8336806 282.018301,6.84853453" id="Fill-22" fill="#FCCEAD"></path>
                        <path d="M223.395259,234.945285 C223.395259,234.945285 221.531746,206.184587 241.404203,180.765731 C263.666164,152.293037 269.707552,124.932636 268.936098,106.545056 C259.703696,96.171938 243.913934,99.0817738 227.077199,108.615707 C210.240463,118.144674 197.631188,105.920692 197.631188,105.920692 C189.616081,110.320205 181.338676,115.066263 177.225924,117.43485 C162.853834,125.717454 166.926842,150.013769 166.926842,150.013769 C158.896706,170.025097 158.365855,245.970924 171.395414,281.19682 L240.157067,248.131036 L223.395259,234.945285 Z" id="Fill-24" fill="#409D9B"></path>
                        <path d="M451.348219,69.1078329 L455.655222,77.5171024 L472,98.6105207 C472,98.6105207 467.931172,105.108136 461.773349,100.110742 C455.620488,95.1183658 456.543417,95.865968 451.417687,91.7014729 C447.954222,88.8916931 441.632653,81.6916324 437.623369,77.0856005 C435.896599,75.1037023 433.703401,73.5783932 431.341497,72.4494638 C418.728131,66.4435595 410,55.4954533 410,55.4954533 C410.868347,51.642041 418.142617,44.5874867 424.047379,41 C441.17615,49.825719 446.212565,59.08294 451.348219,69.1078329" id="Fill-26" fill="#FCCEAD"></path>
                        <path d="M330.8861,48.1733787 L266.165098,130.719121 C260.354967,138.299903 249.475165,140.49236 241.902743,134.75284 C233.886047,128.672159 232.711186,117.082743 239.11862,109.491926 L307.783797,29.1436577 C311.150415,25.1500754 318.100851,17.2281325 322.869404,15.2664607 C329.755667,12.436837 338.764578,13.6559834 343,26.1284027 C340.818116,34.0152262 336.701167,41.1093536 331.517958,47.3756657 C331.300757,47.64157 331.093429,47.9024573 330.8861,48.1733787" id="Fill-28" fill="#FCCEAD"></path>
                        <path d="M316.795958,20.9665033 C321.123208,15.4088721 325.781046,13.8521405 332.81221,14.0107883 C346.085075,14.3032952 383.476068,19.0676873 427.686056,42.7309998 C432.343894,45.2197874 423.570974,62.2694693 417.699335,59.7459776 C396.842681,50.7774185 349.667268,55.3583741 309,37.7187206 L314.545985,24.7790085 C315.133149,23.4156289 315.888074,22.1365309 316.795958,20.9665033" id="Fill-30" fill="#FCCEAD"></path>
                        <path d="M394.062393,403.841656 C348.32715,405.71801 305.677024,390.6625 263.772096,372.271249 C237.218232,360.616011 205.19462,336.491454 189.689548,314.074479 C182.371711,303.48648 175.461248,289.880428 171,280.354703 L239.38924,248 C278.169308,256.944949 285.139387,290.217974 285.139387,290.217974 L291.314588,295.157055 C314.187178,313.449028 381.796445,342.482882 417.92361,348.305537 L434,385.524863 C434,385.524863 427.899318,402.456728 394.062393,403.841656" id="Fill-32" fill="#034561"></path>
                        <g id="Group-36" transform="translate(430.000000, 98.000000)">
                            <mask id="mask-8" fill="white">
                                <use xlink:href="#path-7"></use>
                            </mask>
                            <g id="Clip-35"></g>
                            <path d="M8.22165516,96.3772524 C0.397572288,89.7507547 -7.29858248,76.9964747 13.2057341,61.3387813 C22.5035488,54.1148124 14.9148536,42.7628613 24.1410285,28.6111902 C28.654332,21.6785502 32.0162826,18.172728 32.0162826,18.172728 C26.3209234,-0.363689778 43.0590366,0.130088 43.0999736,0.120212444 C43.3762983,34.6007147 50.4276954,39.8643858 40.7051595,99.9472658 C40.7051595,99.9472658 19.0494899,97.5672569 8.22165516,96.3772524" id="Fill-34" fill="#FCCEAD" mask="url(#mask-8)"></path>
                        </g>
                        <path d="M400.467663,347.009824 C400.467663,347.009824 397.736725,314.730365 405.473555,295.012617 C414.925274,264.692964 433.868363,235.779584 438.537224,196 C449.01986,197.196828 459.512408,198.393657 470,199.595472 C464.805767,249.333666 463.769895,323.651723 433.199258,386.560016 C431.484368,390.09066 426.557778,394.110008 423.474941,396 L400.467663,347.009824 Z" id="Fill-37" fill="#034561"></path>
                        <g id="Group-41" transform="translate(197.000000, 362.000000)">
                            <mask id="mask-10" fill="white">
                                <use xlink:href="#path-9"></use>
                            </mask>
                            <g id="Clip-40"></g>
                            <path d="M0.0151027451,10.2591097 C6.54021647,2.01265806 20.7813773,-6.75540645 40.8120753,12.0922065 C49.9092047,20.6516258 62.333942,12.6138194 79.1371106,21.1782065 C87.3335341,25.3610452 95.2047027,31.2627226 95.2047027,31.2627226 C115.985989,25.5547871 115.985989,42.0029806 115.985989,42.0029806 L0.0151027451,42.0029806 L0.0151027451,10.2591097 Z" id="Fill-39" fill="#FCCEAD" mask="url(#mask-10)"></path>
                        </g>
                    </g>
                </g>
            </g>
        </g>
    </g>
</svg>