<?xml version="1.0" encoding="UTF-8"?>
<svg width="474px" height="403px" viewBox="0 0 474 403" version="1.1" xmlns="http://www.w3.org/2000/svg" xmlns:xlink="http://www.w3.org/1999/xlink">
    <!-- Generator: Sketch 49.3 (51167) - http://www.bohemiancoding.com/sketch -->
    <title>why-illus</title>
    <desc>Created with Sketch.</desc>
    <defs>
        <polygon id="path-1" points="4.42439365e-05 0.44035408 264.796022 0.44035408 264.796022 139 4.42439365e-05 139"></polygon>
        <polygon id="path-3" points="0.409725694 0.638795428 129.109726 0.638795428 129.109726 51 0.409725694 51"></polygon>
        <polygon id="path-5" points="0.73645313 0.0119047619 68.3789563 0.0119047619 68.3789563 83.9268876 0.73645313 83.9268876"></polygon>
        <polygon id="path-7" points="0.0651275624 0.120212444 44.8311529 0.120212444 44.8311529 99.9472658 0.0651275624 99.9472658"></polygon>
        <polygon id="path-9" points="0.014972549 0.855693647 114.98611 0.855693647 114.98611 42 0.014972549 42"></polygon>
    </defs>
    <g id="vedanth-ui" stroke="none" stroke-width="1" fill="none" fill-rule="evenodd">
        <g id="Vedanth-yoga-website" transform="translate(-97.000000, -1006.000000)">
            <g id="Why-vednath-yoga" transform="translate(0.000000, 679.000000)">
                <g id="Group-22" transform="translate(94.000000, 209.000000)">
                    <g id="Group-10" transform="translate(3.000000, 6.000000)">
                        <g id="why-illus" transform="translate(0.000000, 112.000000)">
                            <g id="Group-3" transform="translate(0.000000, 264.000000)">
                                <mask id="mask-2" fill="white">
                                    <use xlink:href="#path-1"></use>
                                </mask>
                                <g id="Clip-2"></g>
                                <path d="M264.796022,17.3521643 C264.796022,17.3521643 224.114917,-15.63055 150.590486,10.5262714 C102.770605,27.5388786 19.9855969,67.6503071 6.83339456,85.0402 C-5.80818707,101.749986 -0.478892857,120.271736 19.2568469,127.286271 C37.312,133.700129 48.5159116,139.001986 96.0879184,139.001986 L173.865869,139.001986 L174.897026,113.386271 L75.1028929,93.3702714 L171.149168,89.3293429 C205.311184,87.8897 236.384687,68.4694143 251.966056,37.9887 C252.149483,37.6213429 252.337867,37.2539857 252.521294,36.8816643 L264.796022,17.3521643 Z" id="Fill-1" fill="#063C52" mask="url(#mask-2)"></path>
                            </g>
                            <g id="Group-6" transform="translate(69.000000, 350.000000)">
                                <mask id="mask-4" fill="white">
                                    <use xlink:href="#path-3"></use>
                                </mask>
                                <g id="Clip-5"></g>
                                <path d="M0.409725694,7.45429665 L27.6244132,51.0019522 L129.109726,51.0019522 L129.109726,19.8163062 C72.4410104,19.8163062 58.6474687,-13.2482871 0.409725694,7.45429665" id="Fill-4" fill="#063C52" mask="url(#mask-4)"></path>
                            </g>
                            <path d="M441.348219,61.1078329 L445.655222,69.5171024 L462,90.6105207 C462,90.6105207 457.931172,97.1081365 451.778311,92.1107424 C445.620488,87.1183658 446.548379,87.865968 441.417687,83.7014729 C437.954222,80.8916931 431.632653,73.6866149 427.623369,69.0856005 C425.896599,67.0986848 423.708363,65.5783932 421.341497,64.4494638 C408.733093,58.4385421 400,47.4954533 400,47.4954533 C400.873309,43.642041 408.142617,36.5874867 414.047379,33 C431.17615,41.825719 436.212565,51.08294 441.348219,61.1078329" id="Fill-7" fill="#E4BC9E"></path>
                            <path d="M319.8861,39.8981628 L255.170034,121.779121 C249.359904,129.293875 238.475165,131.473652 230.902743,125.780355 C222.886047,119.748645 221.711186,108.252564 228.11862,100.72288 L296.788734,21.0167214 C300.155351,17.060278 307.100851,9.20213464 311.869404,7.25626125 C318.760603,4.44942599 327.764578,5.65875395 332,18.0307264 C329.818116,25.8490565 325.706103,32.891028 320.522894,39.1068742 C320.305693,39.3706371 320.093429,39.6294233 319.8861,39.8981628" id="Fill-9" fill="#E4BC9E"></path>
                            <path d="M304.79611,10.9671346 C309.123444,5.40406454 313.781373,3.85215642 320.807741,4.01081796 C334.080864,4.30335016 371.472586,9.06815433 415.688371,32.7285555 C420.341366,35.2225164 411.568275,52.2736731 405.701456,49.7450049 C384.844395,40.7806283 337.668062,45.3619801 297,27.7208008 L302.546093,14.7799695 C303.133269,13.416472 303.888208,12.1323052 304.79611,10.9671346" id="Fill-11" fill="#E4BC9E"></path>
                            <path d="M249.409758,53 L263.403551,61.1262282 C263.403551,61.1262282 265.178036,87.9650109 265.937122,106.257669 C266.696208,124.550328 260.75168,151.774427 238.846637,180.100136 C219.292789,205.392713 221.126424,234 221.126424,234 L163.495065,218.226719 C163.495065,218.226719 158.605371,169.410071 166.511691,149.506987 C166.511691,149.506987 163.061302,125.296261 177.19804,117.056414 C186.873917,111.414984 213.037726,97.4003275 229.441862,87.3425764 C231.793056,85.9050491 236.293349,70.2503275 233.823857,59.8665393 L249.409758,53 Z" id="Fill-13" fill="#FCCEAD"></path>
                            <path d="M321.85716,63.5916189 C325.105045,76.2786834 351.013858,78.1597152 354.697434,56.4931989 C357.772033,38.400643 336.645928,28.8717319 326.154666,39.346109 C319.322226,46.1623742 320.926364,59.9533074 321.85716,63.5916189" id="Fill-15" fill="#034561"></path>
                            <path d="M316,62.2625529 L321.566583,64 C321.566583,64 332.627581,53.8753781 325.742723,40.2952208 L320.585094,40 L316,62.2625529 Z" id="Fill-17" fill="#FEEB97"></path>
                            <g id="Group-21" transform="translate(255.000000, 0.000000)">
                                <mask id="mask-6" fill="white">
                                    <use xlink:href="#path-5"></use>
                                </mask>
                                <g id="Clip-20"></g>
                                <path d="M11.4735275,12.1396958 C13.690998,2.11689153 19.0784098,-1.09376984 32.6560765,0.330992063 C45.3904098,1.67660053 75.7950569,23.8840873 66.7118608,54.3631085 C58.0652137,83.3728439 25.5571941,88.9185317 7.50986078,80.0929233 C-2.6151,75.1458333 1.61148824,63.2282937 1.61148824,63.2282937 C1.61148824,63.2282937 8.88399804,23.869246 11.4735275,12.1396958" id="Fill-19" fill="#034561" mask="url(#mask-6)"></path>
                            </g>
                            <path d="M280.07863,6.83548015 C280.07863,6.83548015 276.019666,4.80887853 270.681028,7.06836591 C268.036703,8.18819957 267.161926,8.65892611 264.042722,10.1206559 C258.149226,12.8805999 256.639611,18.7076989 250.076286,18.1477821 C243.51796,17.5928203 238.994114,15.2590077 238.994114,15.2590077 C238.994114,15.2590077 237.039613,15.5761287 236.569733,18.1775122 C236.094854,20.7739407 239.204061,24.4059676 238.639205,25.446521 C238.084346,26.4920294 233.890416,27.4780776 233.890416,27.4780776 C233.890416,27.4780776 231.421047,28.20151 231.56601,31.6947964 C229.346576,30.5501876 227.277104,32.2695783 227.417068,34.7272663 C227.557033,37.1799993 225.692508,37.9827119 222.523317,38.8201097 C219.359125,39.6575074 216.519849,42.4273615 222.488326,49.1661835 C228.461802,55.9099605 239.553971,67.8416395 259.693832,67.2024424 C259.693832,67.2024424 265.717295,73.6142334 277.994162,67.0240618 C290.271029,60.4388453 280.848434,51.480176 275.089903,55.151843 C268.461595,59.3834269 261.908267,56.6383479 261.908267,56.6383479 C261.908267,56.6383479 266.20717,53.8932689 275.319844,48.0760799 C275.319844,48.0760799 269.711276,20.6054701 280.07863,6.83548015" id="Fill-22" fill="#FCCEAD"></path>
                            <path d="M222.600868,234.1914 C222.600868,234.1914 220.745757,205.591377 240.528619,180.314526 C262.690212,152.000897 268.704362,124.793347 267.936386,106.508491 C258.745608,96.1933238 243.027034,99.0869036 226.266208,108.567574 C209.505381,118.043307 197.292568,106.710943 197.292568,106.710943 C189.313596,111.085878 182.252206,114.942338 178.157997,117.297692 C163.850704,125.534025 167.341504,149.734425 167.341504,149.734425 C159.347572,169.633958 157.422645,242.970897 170.39346,278 L239.042535,245.815098 L222.600868,234.1914 Z" id="Fill-24" fill="#4FB783"></path>
                            <path d="M450.348219,69.1078329 L454.655222,77.5171024 L471,98.6105207 C471,98.6105207 466.931172,105.108136 460.773349,100.110742 C454.620488,95.1183658 455.543417,95.865968 450.417687,91.7014729 C446.954222,88.8916931 440.632653,81.6916324 436.623369,77.0856005 C434.896599,75.1037023 432.703401,73.5783932 430.341497,72.4494638 C417.728131,66.4435595 409,55.4954533 409,55.4954533 C409.868347,51.642041 417.142617,44.5874867 423.047379,41 C440.17615,49.825719 445.212565,59.08294 450.348219,69.1078329" id="Fill-26" fill="#FCCEAD"></path>
                            <path d="M329.8861,47.897787 L265.165098,129.777838 C259.354967,137.297485 248.475165,139.47226 240.902743,133.779026 C232.886047,127.747383 231.711186,116.25143 238.11862,108.72183 L306.783797,29.0215315 C310.150415,25.0601554 317.100851,17.2020991 321.869404,15.2562473 C328.755667,12.4494432 337.764578,13.6587577 342,26.030593 C339.818116,33.8538131 335.701167,40.8907298 330.517958,47.1065071 C330.300757,47.370267 330.093429,47.6290504 329.8861,47.897787" id="Fill-28" fill="#FCCEAD"></path>
                            <path d="M314.795958,20.9665033 C319.123208,15.4088721 323.781046,13.8521405 330.81221,14.0107883 C344.085075,14.3032952 381.476068,19.0676873 425.686056,42.7309998 C430.343894,45.2197874 421.570974,62.2694693 415.699335,59.7459776 C394.842681,50.7774185 347.667268,55.3583741 307,37.7187206 L312.545985,24.7790085 C313.133149,23.4156289 313.888074,22.1365309 314.795958,20.9665033" id="Fill-30" fill="#FCCEAD"></path>
                            <path d="M392.214247,400.842671 C346.652902,402.706998 304.164945,387.747997 262.419351,369.474638 C235.966452,357.894113 204.064603,333.924201 188.618485,311.650925 C181.328472,301.130797 174.444285,287.611964 170,278.147301 L238.129205,246 C276.76182,254.887609 283.705397,287.947346 283.705397,287.947346 L289.857119,292.854766 C312.64274,311.029483 379.994938,339.877223 415.984737,345.662553 L432,382.643294 C432,382.643294 425.922515,399.466621 392.214247,400.842671" id="Fill-32" fill="#034561"></path>
                            <g id="Group-36" transform="translate(429.000000, 98.000000)">
                                <mask id="mask-8" fill="white">
                                    <use xlink:href="#path-7"></use>
                                </mask>
                                <g id="Clip-35"></g>
                                <path d="M8.04292353,96.3772524 C0.388929412,89.7507547 -7.13991765,76.9964747 12.9186529,61.3387813 C22.0143412,54.1148124 14.5906176,42.7628613 23.6162235,28.6111902 C28.0314118,21.6785502 31.3202765,18.172728 31.3202765,18.172728 C25.7487294,-0.363689778 42.1229706,0.130088 42.1630176,0.120212444 C42.4333353,34.6007147 49.3314412,39.8643858 39.8202647,99.9472658 C39.8202647,99.9472658 18.6353706,97.5672569 8.04292353,96.3772524" id="Fill-34" fill="#FCCEAD" mask="url(#mask-8)"></path>
                            </g>
                            <path d="M398.467663,345.254775 C398.467663,345.254775 395.736725,313.136713 403.473555,293.517553 C412.925274,263.349499 431.868363,234.580686 436.537224,195 C447.01986,196.190844 457.512408,197.381689 468,198.577495 C462.805767,248.066997 461.769895,322.013464 431.199258,384.607216 C429.484368,388.120206 424.557778,392.119458 421.474941,394 L398.467663,345.254775 Z" id="Fill-37" fill="#034561"></path>
                            <g id="Group-41" transform="translate(197.000000, 360.000000)">
                                <mask id="mask-10" fill="white">
                                    <use xlink:href="#path-9"></use>
                                </mask>
                                <g id="Clip-40"></g>
                                <path d="M0.014972549,10.2591097 C6.48383529,2.01265806 20.6022275,-6.75540645 40.4602471,12.0922065 C49.4789529,20.6516258 61.7965804,12.6138194 78.4548941,21.1782065 C86.5806588,25.3610452 94.3839725,31.2627226 94.3839725,31.2627226 C114.98611,25.5547871 114.98611,42.0029806 114.98611,42.0029806 L0.014972549,42.0029806 L0.014972549,10.2591097 Z" id="Fill-39" fill="#FCCEAD" mask="url(#mask-10)"></path>
                            </g>
                        </g>
                    </g>
                </g>
            </g>
        </g>
    </g>
</svg>